<svg xmlns="http://www.w3.org/2000/svg" width="150" height="355" viewBox="0 0 150 355"><g><g><g><path fill="#fe9067" d="M44.935 121.584s-4.417 20.18-4.926 23.74c-.425 3.562-7.475 43.412-7.475 43.412l-7.814-1.442 1.614-44.598 6.795-21.366z"/></g><g><path fill="#fe9067" d="M105.49 130.23s4.417 20.179 4.926 23.74c.425 3.561 7.475 43.411 7.475 43.411l7.814-1.441-1.614-44.514-6.795-21.366z"/></g><g><path fill="#3a3362" d="M60.386 245.205l13.335-32.05 4.247.085 2.803 32.05 11.381 109.799h14.27l-8.154-6.189s7.22-51.127 8.408-103.61c.425-14.245.425-41.122-.084-54.35l-61.494-1.61c-.595 10.598-7.644 39.765-8.748 55.96-2.464 45.276 1.953 103.016 1.953 103.016l-9.173 6.783H43.4z"/></g><g><path fill="#3ea3f2" d="M108.549 194.924c-36.778 3.053-30.322 8.649-67.1 5.596l3.822-64.269-17.921-7.8s8.579-23.74 10.192-25.775c1.699-2.035 25.311-13.566 29.983-13.312 1.868.085 4.586.255 7.304.509 2.803-.254 5.436-.34 7.305-.509 4.671-.254 28.283 11.277 29.982 13.312 1.614 2.035 10.192 25.775 10.192 25.775l-17.921 7.8z"/></g><g><path fill="#3e3f43" d="M97.17 170.34c.17 0 .34-.086.425-.255.17-.255.085-.594-.255-.763-16.478-8.733-29.558-23.062-36.777-40.19-.085-.254-.425-.423-.68-.254-.255.085-.424.424-.255.679 7.39 17.38 20.64 31.88 37.287 40.697.085.085.17.085.255.085z"/></g><g><path fill="#3e3f43" d="M79.245 177.294c.085 0 .255-.085.34-.085.255-.17.255-.508.085-.763-6.88-8.818-11.721-16.194-14.949-25.945-.085-.254-.424-.424-.68-.339-.254.085-.424.424-.339.678 3.313 9.92 8.239 17.382 15.204 26.284 0 .17.17.17.34.17z"/></g><g><path fill="#3e3f43" d="M103.616 130.743c.085 0 .085 0 0 0 .34-.085.595-.255.51-.594-.68-7.885 1.189-16.025 5.266-22.808a.554.554 0 0 0-.934-.594c-4.162 6.953-6.031 15.347-5.351 23.402 0 .424.254.594.51.594z"/></g><g><path fill="#fe9067" d="M85.195 76.65v12.379S75.173 99.627 66 89.283l.85-12.633h18.346z"/></g><g><path fill="#fe9067" d="M75.673 47.822c10.787.34 12.316 12.294 12.146 22.384-.17 10.09-4.587 16.788-11.467 17.297-6.88.508-11.806-6.36-13.93-15.601-2.038-9.157-4.076-24.588 13.25-24.08z"/></g><g><path fill="#fe9067" d="M86.299 67.656s0-4.07 3.397-3.053c3.398 1.018.34 10.599-3.397 9.92-3.822-.678 0-6.867 0-6.867z"/></g><g><path fill="#fe9067" d="M64.463 70.547s-.51-4.07-3.822-2.628c-3.312 1.441 1.02 10.598 4.672 9.411 3.652-1.102-.85-6.783-.85-6.783z"/></g><g><path fill="#d47557" d="M75.675 88.09h.765c3.142-.254 5.86-1.695 7.814-4.239.17-.254.17-.593-.085-.763-.255-.17-.595-.17-.765.085-1.868 2.29-4.331 3.646-7.134 3.815-2.888.17-5.521-.932-7.814-3.476-.17-.254-.51-.254-.765-.085-.255.17-.255.509 0 .763 2.293 2.544 5.011 3.9 7.984 3.9z"/></g><g><path fill="#d47557" d="M75.93 47.561c8.834.424 11.807 8.564 11.807 17.127 0 0-1.19 1.95-1.02 4.833l-1.528.424-.595-7.546s-3.057-.678-2.293-6.104c0 0-9.173 2.967-15.713 1.017 0 0 1.019 4.918-2.633 6.274l.255 6.36h-1.19s-.34-1.866-1.528-2.29c-.51-2.12-.17-4.663-.085-6.952 0-1.442-.425-2.714-.085-4.07 1.359-5.342 5.35-9.581 14.609-9.073z"/></g><g/><g/><g><path fill="#fe9067" d="M117.634 200.097s.85.678-.34 2.374c-.764 1.102-1.019 2.629-1.529 4.748-1.019 4.155-1.274 9.496-.084 11.362.254.424 1.104.084 1.358.084.425 0 .255-.17.34-.932l.935-7.038.51-.17.084 9.243c0 1.865.425 3.391 1.36 3.391.424 0 .763.509 1.613-1.187 2.633-5.426 3.482-16.279 3.907-19.416 0 0 .255-9.75-.425-19.586l-9.003 2.374c.51 5.935 1.19 11.531 1.274 14.753z"/></g><g><path fill="#3ea3f2" d="M74.83 64.355c6.03-.424 10.108.933 11.976.763 2.548-.254 2.888-1.356 1.19-5.596-.086-.17-.17-.424-.425-.593h.254v-1.611c-.594-9.072-6.37-4.918-13.08-4.409-6.71.424-14.27-2.883-13.675 6.274.085.594.085 1.103.255 1.611h.255a.734.734 0 0 0-.34.594c-.849 5.257-.17 5.68 3.992 5.257 1.954-.34 4.927-1.95 9.598-2.29z"/></g><g/><g/><g><path fill="#fe9067" d="M32.11 200.097s-.849.678.34 2.374c.765 1.102 1.02 2.629 1.53 4.748 1.019 4.155 1.273 9.496.084 11.362-.255.424-1.104.084-1.359.084-.424 0-.255-.17-.34-.932l-.934-7.038-.51-.17-.084 9.243c0 1.865-.425 3.391-1.36 3.391-.424 0-.764.509-1.613-1.187-2.633-5.426-3.483-16.279-3.907-19.416 0 0-.255-9.75.424-19.586l9.004 2.374c-.51 5.935-1.19 11.531-1.274 14.753z"/></g><g><path fill="#fccf31" d="M140.91 192.47H8.92v162.537h131.99z"/></g><g><path fill="#3e3f43" d="M149.827 190.01H0v4.918h149.827z"/></g><g><path fill="#3e3f43" d="M132.837 24.84H129.1v170.083h3.737z"/></g><g><path fill="#3e3f43" d="M20.982 24.84H17.16v170.083h3.822z"/></g><g><path fill="#fccf31" d="M149.827 0H0v32.643h149.827z"/></g><g><path fill="#fff" d="M74.32 7.121c5.096-.34 9.513 3.476 9.853 8.563.34 5.088-3.483 9.497-8.579 9.836-5.096.339-9.513-3.476-9.852-8.564-.425-5.087 3.482-9.496 8.578-9.835z"/></g><g><path fill="#fff" d="M71.85 229.007c24.717-1.696 46.121 16.957 47.905 41.63 1.698 24.674-16.987 46.04-41.704 47.82-24.716 1.696-46.12-16.957-47.904-41.63-1.698-24.673 16.987-46.04 41.704-47.82z"/></g></g></g></svg>