<svg xmlns="http://www.w3.org/2000/svg" width="78" height="178" viewBox="0 0 78 178"><g><g><g/><g><g><path fill="#fdc619" d="M46.923 0H0v64.201h46.923z"/></g><g><path fill="#fff" d="M23.482 36.35c6.935 0 12.641-5.701 12.641-12.63 0-6.93-5.662-12.63-12.641-12.63-6.98 0-12.642 5.7-12.642 12.63 0 6.972 5.662 12.63 12.642 12.63z"/></g><g><path fill="#fe9067" d="M63.166 69.902l-1.142-1.36c-.087-.087-.175-.13-.263-.13l-2.59.13a.33.33 0 0 0-.307.22l-1.185 3.29a.27.27 0 0 0 .044.306l1.624 2.544a.241.241 0 0 0 .22.131l3.116.746h.044l11.895 1.315c.132 0 .22-.044.307-.131l3.073-3.86c.088-.087.088-.175.044-.306L74.534 59.86l-7.55 3.289 3.249 7.017a.28.28 0 0 1 0 .263c-.044.087-.088.131-.22.175l-.834.307a.134.134 0 0 1-.176 0l-5.706-.92c-.044 0-.088-.045-.131-.089z"/></g><g><path fill="#3ea3f2" d="M14.832 54.032l1.931-.614c.439-.132.878.088 1.054.526l3.204 9.867c.131.439-.132.877-.527 1.053l-1.931.614c-.44.131-.878-.088-1.054-.527l-3.204-9.867c-.176-.438.088-.92.527-1.052z"/></g><g><path fill="#e6e6e6" d="M6.452 48.065l-.614-1.93c-.132-.438.088-.876.527-1.052l12.07-3.815c.44-.132.879.088 1.054.526l.615 1.93c.131.438-.088.877-.527 1.052L7.55 48.636c-.483.087-.922-.132-1.098-.57z"/></g><g/><g><path fill="#fe9067" d="M21.025 61.045V59.29c0-.088-.044-.22-.132-.263l-2.063-1.535c-.131-.088-.263-.088-.35-.044l-3.03 1.798c-.087.044-.131.131-.175.219l-.395 2.982c0 .088 0 .175.044.22l1.887 2.587.044.044 8.296 8.639c.088.087.22.131.307.087l4.873-1.008c.087-.044.175-.088.22-.176l5.618-12.19-6.716-1.974c-.307-.088-.615-.044-.922.131-.307.176-.483.395-.57.702l-1.669 6.27c-.043.089-.087.176-.175.22a.28.28 0 0 1-.263 0l-.834-.307c-.044 0-.088-.044-.132-.088l-3.775-4.385c-.044 0-.044-.088-.088-.175z"/></g><g><path fill="#3e3f43" d="M49.64 103.496l2.194.044 1.493 16.796 5.97 57.623h7.505l-4.258-3.245 4.39-54.378c.22-7.455.22-21.576-.044-28.548L50.342 86.92l-15.714 3.99-2.195 29.952-1.405 53.501-4.828 3.552h7.506z"/></g><g><path fill="#3ea3f2" d="M68.47 94.107c-19.138 1.579-15.802 4.517-34.94 2.895l1.976-33.548-9.306-4.078s4.433-12.411 5.311-13.463c.878-1.053 13.168-7.105 15.627-6.93.965.045 2.37.132 3.818.264 1.449-.088 2.854-.176 3.82-.263 2.457-.132 14.748 5.876 15.626 6.929.877 1.052 5.31 13.463 5.31 13.463l-9.305 4.078z"/></g><g><path fill="#fe9067" d="M56.408 32.804v6.446c-2.063 4.605-7.77 4.079-10.008-.131l.395-6.359h9.613z"/></g><g><path fill="#fe9067" d="M51.439 17.756c5.619.176 6.453 6.447 6.365 11.71-.088 5.261-2.414 8.726-5.97 9.033-3.555.263-6.145-3.29-7.242-8.113-1.142-4.868-2.195-12.893 6.847-12.63z"/></g><g><path fill="#fe9067" d="M56.978 28.106s0-2.15 1.8-1.623c1.8.526.175 5.525-1.8 5.175-1.975-.351 0-3.552 0-3.552z"/></g><g><path fill="#fe9067" d="M45.565 29.6s-.307-2.106-1.975-1.36c-1.712.79.526 5.525 2.458 4.911 1.887-.614-.483-3.552-.483-3.552z"/></g><g/><g/><g><path fill="#3e3f43" d="M53.988 29.205c.264 0 .483-.22.483-.483a.487.487 0 0 0-.483-.482.487.487 0 0 0-.482.482c-.044.264.175.483.482.483z"/></g><g><path fill="#3e3f43" d="M48.323 29.205c.263 0 .483-.22.483-.483a.487.487 0 0 0-.483-.482.487.487 0 0 0-.483.482c0 .264.22.483.483.483z"/></g><g><path fill="#3e3f43" d="M51.573 17.632c4.61.263 6.145 4.473 6.145 8.946 0 0-.614 1.008-.526 2.5-.132.043 1.36 6.358-6.936 6.314-5.399-.044-5.267-6.095-5.355-6.095 0 0-.175-.965-.79-1.228-1.01-4.605-.483-10.876 7.462-10.437z"/></g></g></g></g></svg>