<svg xmlns="http://www.w3.org/2000/svg" width="108" height="182" viewBox="0 0 108 182"><g><g><g><path fill="#fe9067" d="M49.02 51.782c.809 3.723 2.072 9.661 2.274 11.12.152 1.258 1.668 9.913 2.931 16.857.304 2.415 1.668 6.994 1.77 8.906-.304.352-.91 1.006-1.113 1.811-.151.604-.657 3.422-.758 4.026-.202 1.208.05 1.258.354 1.308.253.05.809-1.358 1.466-3.22.151-.604 1.162.251.606 1.811-.404 1.158-1.061 2.466-1.061 3.27.05.806.556 1.712 1.01 1.812.607.101 1.82-2.163 2.83-4.176 1.264-2.566.81-3.623.506-8.453-.455-7.649-.05-17.41-.354-25.512L57.005 48.31z"/></g><g><path fill="#3e3f43" d="M23.95 22.69c3.083-1.458 8.54-1.458 12.534-.05l.656 1.158-.404 2.465H24.152c0-1.157-.202-2.465-.202-3.572z"/></g><g><path fill="#fe9067" d="M11.32 51.782c-.809 3.723-2.072 9.661-2.274 11.12-.152 1.258-1.668 9.913-2.88 16.857-.304 2.415-1.669 6.994-1.82 8.906.354.352.91 1.006 1.112 1.811.151.604.657 3.422.758 4.026.151 1.208-.05 1.258-.354 1.308-.253.05-.809-1.358-1.466-3.22-.151-.604-1.162.251-.606 1.811.404 1.158 1.061 2.466 1.061 3.27 0 .806-.556 1.712-1.01 1.812-.607.151-1.82-2.163-2.83-4.176-1.264-2.566-.81-3.623-.506-8.453.505-7.649.05-17.41.354-25.512L3.335 48.31z"/></g><g><path fill="#3e3f43" d="M21.228 116.89l1.112-4.428 10.613-.151.404 4.528 6.772 65.162h8.49l-4.851-3.673s4.296-30.292 5.003-61.489c.253-8.453-1.768-25.008-2.072-32.857L32.346 28.229l-2.122-3.069L12.13 83.63c-.354 6.29-4.548 23.599-5.205 33.21-1.466 26.919 1.162 61.136 1.162 61.136l-5.458 4.025h8.49z"/></g><g><path fill="#3ea3f2" d="M50.235 111.701c-5.812 1.46-12.736 2.768-18.446 3.07l-1.062-24.153-6.014 24.253c-4.447.302-9.147.05-20.215-2.818l5.66-27.02 2.123-32.858-3.79 18.97L5.61 87.398 0 87.096l.05-25.41 2.275-12.48S6.722 32.3 7.732 31.092c.91-1.107 12.635-5.787 16.779-6.642v.252c5.56 4.73 11.017-.101 11.371-.101 4.65 1.308 15.313 5.434 16.172 6.491.96 1.208 6.065 16.454 6.065 16.454L60.19 63.95l1.061 23.095-7.429.504-6.165-35.474L47 80.907z"/></g><g><path fill="#fe9067" d="M35.982 17.21v7.346c0-.452-4.65 5.234-11.422.151l.455-7.497z"/></g><g><path fill="#fe9067" d="M30.321.097c6.418.202 7.328 7.296 7.227 13.284-.101 5.988-2.73 9.963-6.823 10.265-4.093.302-7.025-3.774-8.288-9.208C21.224 8.953 20.011-.205 30.321.098z"/></g><g><path fill="#fe9067" d="M36.638 11.878s0-2.415 2.072-1.811c2.022.604.203 6.29-2.072 5.887-2.223-.402 0-4.076 0-4.076z"/></g><g><path fill="#fe9067" d="M23.647 13.583s-.354-2.415-2.274-1.56c-1.971.856.606 6.29 2.78 5.586 2.173-.654-.506-4.026-.506-4.026z"/></g><g><path fill="#d47557" d="M30.322 23.999h.454c1.87-.151 3.437-1.007 4.65-2.466.101-.151.101-.352-.05-.453-.152-.1-.354-.1-.455.05-1.112 1.359-2.578 2.114-4.246 2.265-1.718.15-3.285-.554-4.65-2.063-.1-.151-.302-.151-.454 0-.152.1-.152.302-.05.453 1.415 1.408 3.032 2.214 4.8 2.214z"/></g><g/><g><path fill="#d47557" d="M30.574 0c5.306.302 7.025 5.133 7.025 10.215 0 0-.708 1.157-.607 2.868l-.91.302-.353-4.529c-5.964.504-9.4.302-10.765-3.019 0 0-1.415.755-1.567 3.724l.152 3.774h-.707s-.203-1.107-.91-1.41C20.82 6.694 21.426-.451 30.574 0z"/></g><g><path fill="#fff" d="M36.39 22.79c.506.252.708.503.758.805l.455 1.71c.152.252.152.504-.1.705-1.972 1.711-3.286 3.422-4.903 5.133-.607-1.46-1.264-2.919-1.87-4.378 3.891-1.409 6.57-2.767 5.66-3.975z"/></g><g/><g><path fill="#fff" d="M24.206 22.74c-.505.252-.707.503-.758.805l-.455 1.71c-.151.252-.151.504.102.705 1.97 1.711 3.285 3.422 4.902 5.133.606-1.46 1.263-2.919 1.87-4.378-3.892-1.409-6.57-2.767-5.66-3.975z"/></g><g/><g><path fill="#fff" d="M25.425 16.249c1.718 0 3.335-1.359 5.054-1.359 1.667 0 3.537.855 5.205.855l.05 5.485c-2.779 4.126-8.035 4.076-10.764.252z"/></g><g/><g/><g/><g/><g><path fill="#3e3f43" d="M33.406 12.827a.56.56 0 0 0 .556-.553.56.56 0 0 0-.556-.554.56.56 0 0 0-.556.553.56.56 0 0 0 .556.554z"/></g><g><path fill="#3e3f43" d="M27.042 12.827a.56.56 0 0 0 .556-.553.56.56 0 0 0-.556-.554.56.56 0 0 0-.556.553c-.05.302.203.554.556.554z"/></g><g><path fill="#3e3f43" d="M88.545 103.96H74.9v34.267h13.645z"/></g><g><path fill="#fe9067" d="M102.135 88.162c.505 1.761 1.061 3.522 1.213 4.529-.303.352-.809 1.006-.96 1.76-.101.554-.405 3.271-.455 3.875-.101 1.107.151 1.208.404 1.208.253.05.708-1.359 1.213-3.12.152-.553 1.112.151.708 1.66-.354 1.108-.91 2.416-.809 3.17.05.755.606 1.61 1.061 1.661.556.05 1.567-2.164 2.426-4.126 1.061-2.466.556-3.472 0-8-.101-.906-.202-1.913-.303-2.919z"/></g><g><path fill="#fe9067" d="M98.293 95.754l-13.291 2.264-16.93-2.868-.152 81.918h3.891L84.8 99.83l1.213 77.238h3.891s4.346-30.845 4.65-33.663c.303-2.818 1.415-11.473 1.415-11.473z"/></g><g><path fill="#fccf31" d="M87.782 9.412c-3.032-.905-6.368-.604-9.147 1.258-2.628 1.761-4.043 5.535-4.902 9.61-5.307 24.455 22.995 23.147 23.146 7.045.05-5.736-1.112-11.774-3.891-14.743-1.466-1.51-3.285-2.616-5.206-3.17z"/></g><g><path fill="#3ea3f2" d="M73.128 56.457l2.122 13.888c-2.931 4.277-5.155 9.712-7.126 19.775-1.768 9.057-3.386 28.933-5.104 48.154l17.688-.1 4.246-32.757.151 32.757H103.4c-.556-21.234-2.123-42.167-3.892-51.325-2.577-13.434-5.407-16.453-5.407-16.453l3.234-14.14c2.881-2.717 3.033-7.044 3.033-9.007 0-1.912-.809-7.85-.809-7.85s-8.238-4.528-14.201-4.629c-5.964-.05-14.404 4.63-14.404 4.63l-1.212 7.749c-1.011 5.635 3.386 9.308 3.386 9.308z"/></g><g><path fill="#fe9067" d="M81.97 29.69v7.045s3.588 6.038 6.924.15l-.304-7.195z"/></g><g><path fill="#fe9067" d="M81.97 29.69v7.045s3.588 6.038 6.924.15l-.304-7.195z"/></g><g><path fill="#fe9067" d="M83.435 12.929c-6.115.805-7.126 7.85-5.61 13.384 1.112 4.127 3.588 8.353 7.53 8.253 3.942-.101 6.267-5.435 6.974-8.705 1.112-5.284.91-14.24-8.894-12.932z"/></g><g><path fill="#fe9067" d="M78.536 24.761s-.252-2.314-2.122-1.56c-1.87.805.404 6.038 2.527 5.435 2.072-.604-.405-3.875-.405-3.875z"/></g><g><path fill="#fe9067" d="M91.069 24.651s.05-2.314 2.021-1.71c1.92.654.051 6.038-2.122 5.585-2.123-.453.1-3.875.1-3.875z"/></g><g><path fill="#fccf31" d="M80.308 10.823c-5.206 2.264-6.419 13.334-2.527 15.497 2.325-10.214 15.11-5.786 16.374-10.717-4.8-6.843-7.176-7.699-13.847-4.78z"/></g><g><path fill="#d47557" d="M85.362 34.82c-.91 0-1.87-.25-2.678-.704-.152-.1-.202-.251-.101-.402.05-.151.252-.201.404-.1 1.466.855 3.538.804 5.003-.152.152-.1.303-.05.404.101.102.15.051.302-.1.403-.86.553-1.921.855-2.932.855z"/></g><g><path fill="#3e3f43" d="M71.815 177.07l-1.213 4.931H63.83l3.386-2.465.708-2.466z"/></g><g><path fill="#3e3f43" d="M86.02 177.07v4.931h6.823l-3.437-2.465.505-2.466z"/></g><g/><g><path fill="#3ea3f2" d="M99.204 39.3c2.325 1.46 3.386 3.371 3.74 4.68.404 1.66 4.093 36.631 5.053 47.298l-6.165 2.214-5.812-37.537z"/></g><g><path fill="#3e3f43" d="M97.183 56.26c-.05 0-.101 0-.152-.05-.151-.101-.151-.252-.1-.403 1.97-3.17 2.324-7.246.808-10.667-.05-.101-.05-.151 0-.252.253-.453.455-.906.657-1.409.253-.503.455-1.006.707-1.46.05-.15.253-.2.405-.15.151.05.202.251.1.402-.252.453-.454.906-.656 1.41-.202.452-.405.905-.607 1.308 1.466 3.572 1.112 7.799-.91 11.07-.05.15-.151.2-.252.2z"/></g><g><path fill="#3e3f43" d="M88.236 23.297c.303 0 .505-.252.505-.553 0-.302-.252-.554-.505-.554a.56.56 0 0 0-.556.553.56.56 0 0 0 .556.554z"/></g><g><path fill="#3e3f43" d="M82.125 23.297a.56.56 0 0 0 .556-.553.56.56 0 0 0-.556-.554c-.303 0-.505.252-.505.553 0 .302.202.554.505.554z"/></g><g><path fill="#fe9067" d="M68.528 88.01c-.303 1.811-.607 3.623-.657 4.63.354.351.91.905 1.162 1.66.202.553.809 3.22.96 3.774.253 1.107 0 1.207-.252 1.258-.253.05-.86-1.258-1.567-2.97-.202-.553-1.112.303-.505 1.762.455 1.107 1.162 2.264 1.213 3.07.05.754-.455 1.66-.86 1.76-.555.151-1.819-1.962-2.93-3.773-1.315-2.315-1.011-3.372-1.011-7.95 0-.957-.051-1.913-.051-2.92z"/></g><g><path fill="#3ea3f2" d="M71.31 39.3c-2.324 1.46-3.386 3.371-3.74 4.68l-4.75 46.09 5.812.051 3.79-23.498 2.022-10.718z"/></g><g><path fill="#3e3f43" d="M73.025 56.26a.278.278 0 0 1-.253-.151c-2.072-3.271-2.426-7.498-.91-11.07-.202-.403-.454-.856-.606-1.309-.202-.503-.455-.956-.657-1.409-.05-.15 0-.352.152-.402.151-.05.303 0 .404.15.253.454.455.957.707 1.46.253.503.455.956.657 1.409.05.1.05.15 0 .252-1.465 3.421-1.162 7.497.809 10.667.101.15.05.302-.101.402h-.202z"/></g><g><path fill="#3e3f43" d="M73.276 55.85l1.466 6.39-.506.101-1.516-6.39z"/></g><g/><g><path fill="#fff" d="M80.455 26.969c1.718 0 3.335-1.359 5.054-1.359 1.667 0 3.537.855 5.205.855l.05 5.485c-2.779 4.126-8.035 4.076-10.764.252z"/></g><g/><g/><g/><g/><g><path fill="#3e3f43" d="M31.085 46.296a.452.452 0 1 0 0-.906.452.452 0 1 0 0 .906z"/></g><g><path fill="#3e3f43" d="M31.085 64.806a.452.452 0 1 0 0-.906.452.452 0 1 0 0 .906z"/></g><g><path fill="#3e3f43" d="M31.085 84.086a.452.452 0 1 0 0-.906.452.452 0 1 0 0 .906z"/></g><g><path fill="#3e3f43" d="M85.355 48.506a.452.452 0 1 0 0-.906.452.452 0 0 0-.455.453c.05.251.253.453.455.453z"/></g><g><path fill="#3e3f43" d="M85.355 67.026a.452.452 0 1 0 0-.906.452.452 0 0 0-.455.453c.05.251.253.453.455.453z"/></g><g><path fill="#3e3f43" d="M85.355 86.346a.452.452 0 1 0 0-.906.452.452 0 0 0-.455.453c0 .251.253.453.455.453z"/></g></g></g></svg>