<svg xmlns="http://www.w3.org/2000/svg" width="140" height="364" viewBox="0 0 140 364"><g><g><g><path fill="#fe9067" d="M126.985 166.42c1.1 3.7 2.2 7.4 2.5 9.5-.6.8-1.7 2.1-2 3.7-.3 1.2-.9 6.9-1 8.1-.2 2.4.3 2.5.9 2.6.5.1 1.5-2.8 2.5-6.6.3-1.2 2.4.3 1.4 3.5-.7 2.4-1.8 5.1-1.7 6.7.1 1.6 1.3 3.4 2.2 3.5 1.2.1 3.3-4.6 5-8.7 2.2-5.2 1.2-7.2 0-16.8-.3-2-.5-4-.7-6.1z"/></g><g><path fill="#fe9067" d="M118.89 182.42l-27.8 4.7-35.4-6-.3 172h8.2l27.2-162.1 2.5 162.1h8.2s9.1-64.7 9.7-70.6c.6-5.9 3-24.1 3-24.1z"/></g><g><path fill="#3e3f43" d="M96.89 1.018c-6.3-1.9-13.3-1.2-19 2.6-9.8 6.5-18.1 42.3-13.3 54 9.7 23.1 40.5-6 52.2 14.2-1.1-13.5.2-54.5-9.1-64.2-3-3.1-6.8-5.3-10.8-6.6z"/></g><g><path fill="#3ea3f2" d="M66.19 99.92l4.5 29.1c-6.1 9-10.7 20.3-14.9 41.501-3.7 19-7 60.8-10.7 101.1h84.6c-1.2-44.5-4.6-88.7-8.3-107.9-5.4-28.2-11.3-34.5-11.3-34.5l6.7-29.7c6.1-5.7 6.4-14.8 6.4-18.9 0-4.1-1.8-16.5-1.8-16.5s-17.2-9.5-29.7-9.7c-12.5-.1-30.1 9.7-30.1 9.7l-2.5 16.2c-2 11.8 7.1 19.6 7.1 19.6z"/></g><g><g><path fill="#3e3f43" d="M117.39 129.02h-53.5v6h53.5z"/></g><g><path fill="#fff" d="M89.59 137.22c2.7 0 4.9-2.2 4.9-4.9s-2.2-4.9-4.9-4.9-4.9 2.2-4.9 4.9 2.2 4.9 4.9 4.9z"/></g></g><g><path fill="#fe9067" d="M84.69 43.62v14.8s7.5 12.7 14.4.3l-.6-15.1z"/></g><g><path fill="#fe9067" d="M84.69 43.62v14.8s7.5 12.7 14.4.3l-.6-15.1z"/></g><g><path fill="#fe9067" d="M87.784 8.422c-12.8 1.7-14.8 16.5-11.8 28.1 2.3 8.7 7.5 17.5 15.7 17.3 8.2-.2 13.2-11.4 14.6-18.3 2.4-11 2-29.8-18.5-27.1z"/></g><g><path fill="#fe9067" d="M77.488 33.321s-.5-4.9-4.5-3.3c-3.9 1.6.9 12.7 5.3 11.4 4.5-1.2-.8-8.1-.8-8.1z"/></g><g><path fill="#fe9067" d="M103.79 33.12s.1-4.9 4.2-3.6c4.1 1.3 0 12.7-4.5 11.7-4.4-.9.3-8.1.3-8.1z"/></g><g><path fill="#3e3f43" d="M81.986 4.713c-4 1.8-8.7 9.2-9.8 13.4-1.1 4.5 0 9.3 1.1 13.8.3 1.3.7 2.7 1.9 3.4 7.9-16.4 33-10.3 35.7-20.7-10-14.2-14.9-16.1-28.9-9.9z"/></g><g><path fill="#d47557" d="M91.784 54.419c-2 0-3.9-.5-5.6-1.5-.3-.2-.4-.5-.2-.9.2-.3.5-.4.8-.2 3.1 1.8 7.5 1.7 10.5-.3.3-.2.7-.1.9.1.2.3.1.7-.2.9-1.8 1.3-4 1.9-6.2 1.9z"/></g><g><path fill="#3e3f43" d="M63.59 353.12l-2.6 10.3h-14.2l7.1-5.2 1.5-5.1z"/></g><g><path fill="#3e3f43" d="M93.19 353.12v10.3h14.2l-7-5.2 1-5.1z"/></g><g/><g><path fill="#3ea3f2" d="M120.79 63.82c4.8 3.1 7.1 7.1 7.8 9.8.9 3.5 8.5 76.9 10.6 99.3l-12.9 4.6-12.2-78.8z"/></g><g><path fill="#3e3f43" d="M116.584 99.418c-.1 0-.2 0-.3-.1-.3-.2-.4-.6-.2-.9 4.1-6.6 4.8-15.2 1.7-22.4-.1-.2-.1-.3 0-.5.5-.9.9-2 1.4-3 .5-1 .9-2.1 1.4-3 .1-.3.5-.4.8-.3.3.2.4.5.3.8-.5.9-1 2-1.4 3-.4.9-.9 1.9-1.3 2.8 3.1 7.5 2.4 16.4-2 23.2 0 .3-.2.4-.4.4z"/></g><g><path fill="#3ea3f2" d="M62.39 63.82c-4.8 3.1-7.1 7.1-7.8 9.8l-5.2 50.5 13.1 4.5 2.2-7.5 4.2-22.5z"/></g><g><path fill="#fe9067" d="M25.689 142.42c-2.7 2.7-5.9 4.8-7.6 6-.9-.2-2.6-.5-4.3-.1-1.2.3-6.5 2.4-7.6 2.9-2.2.9-2.1 1.4-1.9 2 .2.5 3.2 0 7-.9 1.2-.3.8 2.2-2.5 2.9-2.4.5-5.3.7-6.7 1.6-1.4.9-2.4 2.7-2 3.5.4 1.1 5.6.8 10 .5 5.6-.5 6.9-2.3 14.9-7.8 1.6-1.1 3.3-2.3 5.1-3.4z"/></g><g><path fill="#3ea3f2" d="M63.39 125.12c-1 5.6-3.9 12.7-5.9 14.3-19 11.5-20.5 10.5-35.2 26.3l-1.8-19.9 27.2-20.8 2.7-6.2z"/></g><g><path fill="#3e3f43" d="M66.59 98.62l3.1 13.4-1.1.2-3.1-13.4z"/></g><g><path fill="#3e3f43" d="M65.987 99.418c-.2 0-.4-.1-.5-.3-4.3-6.9-5-15.8-1.9-23.2-.5-.9-.9-1.8-1.3-2.8-.5-1-.9-2-1.4-3-.1-.3 0-.7.3-.8.3-.1.7 0 .8.3.5 1 1 2 1.4 3 .5 1 .9 2 1.4 3 .1.2.1.3 0 .5-3.1 7.2-2.4 15.8 1.7 22.4.2.3.1.7-.2.9-.1-.1-.2 0-.3 0z"/></g><g><path fill="#3e3f43" d="M97.79 30.22c.6 0 1.1-.5 1.1-1.1 0-.6-.5-1.1-1.1-1.1-.6 0-1.1.5-1.1 1.1 0 .6.5 1.1 1.1 1.1z"/></g><g><path fill="#3e3f43" d="M85.09 30.22c.6 0 1.1-.5 1.1-1.1 0-.6-.5-1.1-1.1-1.1-.6 0-1.1.5-1.1 1.1 0 .6.5 1.1 1.1 1.1z"/></g></g></g></svg>