<svg xmlns="http://www.w3.org/2000/svg" width="59" height="177" viewBox="0 0 59 177"><g><g><g><path fill="#fe9067" d="M52.689 79.084c.542 1.81 1.084 3.62 1.232 4.648-.296.392-.838 1.028-.986 1.811-.148.587-.444 3.377-.493 3.964-.099 1.174.148 1.223.444 1.272.246.05.739-1.37 1.232-3.23.148-.587 1.183.147.69 1.713-.345 1.175-.887 2.496-.838 3.279.05.783.64 1.664 1.084 1.713.592.049 1.627-2.251 2.465-4.258 1.084-2.544.591-3.523 0-8.22a55.147 55.147 0 0 1-.345-2.986z"/></g><g><path fill="#3e3f43" d="M22.916 22.12c3.007-1.42 7.887-1.273 11.83.097l.789.88-.395 2.399H22.818c0-1.077-.641-2.79.098-3.377z"/></g><g><path fill="#3e3f43" d="M37.752 113.68l-7.738-18.497-2.465.049-1.627 18.498-6.604 63.273h-8.281l4.732-3.572s-4.19-29.46-4.88-59.8c-.246-8.22-.246-23.733.05-31.367l18.335-5.334 17.35 4.404c.345 6.117 4.436 22.951 5.077 32.298 1.43 26.18-1.134 59.456-1.134 59.456l5.324 3.915h-8.33z"/></g><g><path fill="#3ea3f2" d="M47.762 83.09c-5.718 1.42-13.16 2.691-18.73 2.985l-.789-4.845-1.38 4.894c-4.338.294-6.358.832-17.153-1.957l1.577-33.424-1.035 3.426 15.527 11.06-4.83 6.704-19.717-13.8L0 53.729l1.577-5.873S5.866 31.414 6.851 30.24c.888-1.076 12.323-5.627 16.364-6.459v.245c1.923 1.615 4.437 2.104 6.112 2.006 3.106-.147 4.782-2.104 5.028-2.104 4.535 1.272 14.935 5.285 15.773 6.312.936 1.175 5.915 16.002 5.915 16.002l2.02 15.953 1.036 20.26-7.246.49-6.013-32.298z"/></g><g><path fill="#fe9067" d="M34.359 16.74v7.145c0-.294-1.972 2.202-5.471 2.202-1.578 0-3.648-.49-5.718-2.056l.493-7.291z"/></g><g><path fill="#fe9067" d="M28.834.097c6.26.196 7.147 7.145 7.098 12.92-.098 5.822-2.71 9.688-6.703 9.982-3.993.294-6.851-3.67-8.084-8.955C20.012 8.71 18.83-.196 28.835.097z"/></g><g><path fill="#fe9067" d="M34.994 11.546s0-2.349 1.971-1.762c1.972.587.198 6.117-1.971 5.726-2.169-.392 0-3.964 0-3.964z"/></g><g><path fill="#fe9067" d="M22.323 13.215s-.295-2.349-2.218-1.517c-1.922.832.592 6.117 2.711 5.432 2.12-.636-.493-3.915-.493-3.915z"/></g><g><path fill="#d47557" d="M28.834 23.346h.444c1.823-.146 3.351-.978 4.534-2.397.099-.147.099-.343-.049-.44-.148-.099-.345-.099-.443.048-1.085 1.321-2.514 2.055-4.14 2.202-1.677.147-3.205-.538-4.535-2.006-.1-.147-.296-.147-.444 0-.148.098-.148.293 0 .44 1.33 1.37 2.908 2.153 4.633 2.153z"/></g><g/><g><path fill="#3e3f43" d="M29.076 0c5.176.294 6.9 4.991 6.9 9.934 0 0-.69 1.125-.59 2.79l-1.184-4.111C30.9 3.279 27.45 11.989 23.704 5.676c0 0-1.38.735-1.528 3.622l-.493 3.67s-.197-1.077-.887-1.37C19.613 6.508 20.204-.44 29.076 0z"/></g><g><path fill="#3e3f43" d="M34.703 22.218c.493.245.788.49.838.734l.443 1.664c.148.244.197.538-.098.685-9.07 5.383-5.718 5.04-14.147-.05-.246-.146-.246-.44-.098-.684l.444-1.664c.098-.245.246-.49.788-.783-.887 1.174 2.021 2.594 5.767 3.964 3.795-1.42 6.95-2.692 6.063-3.866z"/></g><g/><g/><g><path fill="#fff" d="M29.724 34.01a.44.44 0 1 0 0-.88.44.44 0 0 0-.444.44c.05.245.197.44.444.44z"/></g><g><path fill="#fff" d="M29.724 41.5a.44.44 0 1 0 0-.88.44.44 0 0 0-.444.44c.05.245.197.44.444.44z"/></g><g><path fill="#fff" d="M29.724 48.98a.44.44 0 1 0 0-.88.44.44 0 0 0-.444.44c.05.245.197.44.444.44z"/></g><g><path fill="#fff" d="M29.724 56.52a.44.44 0 1 0 0-.88.44.44 0 0 0-.444.44c.05.245.197.44.444.44z"/></g><g><path fill="#fff" d="M29.724 64.01a.44.44 0 1 0 0-.88.44.44 0 1 0 0 .88z"/></g><g><path fill="#fff" d="M29.724 71.49a.44.44 0 1 0 0-.88.44.44 0 0 0-.444.44c.05.245.197.44.444.44z"/></g><g><path fill="#fff" d="M29.724 79.03a.44.44 0 1 0 0-.88.44.44 0 0 0-.444.44c.05.245.197.44.444.44z"/></g><g/><g/><g><path fill="#3e3f43" d="M30.56 67.976c.148.147.247.293.296.49 0 .244-.05.39-.197.537l-5.373 5.97a.707.707 0 0 1-.986.098l-.492-.342c-.296-.245-.395-.685-.148-.979l4.436-6.704a.904.904 0 0 1 .493-.343c.197 0 .394.05.542.196zm4.042-6.655c.986.782 1.183 2.202.444 3.18l-.198.196a.753.753 0 0 1-.985.049l-2.465-1.908c-.296-.245-.394-.637-.197-.98.05-.097.099-.146.148-.244.838-.88 2.267-1.076 3.253-.293zm-.394 4.355c.345.244.394.685.148 1.027l-1.233 1.566a.73.73 0 0 1-1.035.147l-3.795-2.887c-.345-.245-.394-.685-.148-1.028l1.232-1.566c.296-.342.74-.391 1.035-.146z"/></g><g><path fill="#fe9067" d="M25.537 65.92s4.584 2.545 5.274 3.866c.345.587-.296 1.664-.789 1.566.247.538-.345 1.125-.986 1.174-.049.588-.443.881-1.084.685.148 1.566-3.007.783-4.239-.342a22.288 22.288 0 0 1-1.873-1.81z"/></g><g><path fill="#fff" d="M20.604 69.73a.44.44 0 1 0 0-.88.44.44 0 1 0 0 .88z"/></g><g><path fill="#fff" d="M33.122 68.314l1.233-1.566c.246-.343.197-.783-.148-1.028l-3.796-2.887c-.345-.245-.788-.196-1.035.147l-1.232 1.566c-.246.342-.197.783.148 1.027l3.795 2.888c.296.195.789.146 1.035-.147z"/></g><g><path fill="#fff" d="M27.747 27.31h1.528c.099 0 .197.049.197.147v2.25c0 .099-.098.148-.197.148h-1.528c-.098 0-.197-.05-.197-.147v-2.251c0-.098.099-.147.197-.147z"/></g><g><path fill="#fff" d="M30.117 27.303l3.155-.93c.098-.049.197.049.197.147l-.099 4.013c0 .097-.098.195-.197.146l-3.056-.832c-.098-.048-.197-.048-.197-.146V27.45c0-.098.099-.098.197-.147z"/></g><g><path fill="#fff" d="M26.912 27.303l-3.155-.93c-.098-.049-.197.049-.197.147l.099 4.013c0 .097.098.195.197.146l3.056-.88c.098-.05.197-.05.197-.147V27.4c0-.05-.099-.05-.197-.098z"/></g><g><path fill="#3e3f43" d="M31.302 13.217a.545.545 0 0 0 .542-.539.545.545 0 0 0-.542-.538.545.545 0 0 0-.542.538c0 .294.246.539.542.539z"/></g><g><path fill="#3e3f43" d="M25.042 13.217a.545.545 0 0 0 .542-.539.545.545 0 0 0-.542-.538.545.545 0 0 0-.542.538c0 .294.246.539.542.539z"/></g></g></g></svg>