<svg xmlns="http://www.w3.org/2000/svg" width="193" height="350" viewBox="0 0 193 350"><g><g><g><path fill="#fccf31" d="M158.67 152.11l23.777 2.192.337 4.385-23.861-2.867z"/></g><g><path fill="#fccf31" d="M158.59 151.863l23.945-.843.843 4.3-24.03.169z"/></g><g><path fill="#fccf31" d="M170.65 138.03l10.708-21.5 11.551 6.324-12.394 20.572z"/></g><g><path fill="#fe9067" d="M119.892 96.974c-6.577 13.237-12.647 26.053-12.732 27.487-.084 2.698 13.66 14.333 22.175 21.416 15.092 13.068 22.765 22.09 24.873 23.102 4.721 2.276 7.335 3.288 8.094-.675.759-3.963 5.986-1.012 5.986-4.468.085-3.457 6.408-1.012 4.975-4.554-1.433-3.54-9.359-4.047-9.359-4.047s-1.855-7.082-10.792-2.782c-2.192 1.012-6.155-3.878-7.336-5.143-6.66-6.998-11.804-15.261-17.368-23.187l9.443-14.249c.253 0-13.828-21.163-17.96-12.9z"/></g><g><path fill="#fe9067" d="M133.723 66.453l5.902-13.322s1.77.506 3.626.422c1.264-.085 2.613-.338 3.54-1.18.844-.844 1.687-5.06 2.109-10.371.084-.675.084-1.265.084-1.94 0-.674.169-3.035.169-6.492-.085-6.745-1.096-13.237-3.626-15.682-5.733-5.565-25.8-6.408-28.582 3.372-2.783 9.78-.17 20.826 7.925 28.33l-5.48 13.827z"/></g><g><path fill="#fdc619" d="M144.344 16.873c4.722 4.384 1.855 1.18.506 7.504-4.047.253-12.31 6.155-13.322 8.684-1.096 2.445.675 5.733 3.373 6.155-2.277 3.541-5.987 10.624-8.263 14.165-.506.843.927-.253 0 0-1.012.253-2.192-1.686-3.12-2.277-6.83-5.143-8.768-12.9-8.178-20.404.759-9.19 5.733-17.959 17.031-19.73 4.89-.758 4.385-.505 11.973 5.903z"/></g><g><path fill="#3ea3f2" d="M153.278 336.85l-.76 6.492s14.925 5.396 14.925 6.661H143.16l2.276-13.153h7.842z"/></g><g><path fill="#3ea3f2" d="M112.888 336l.422 6.745s15.345 5.48 15.598 6.83l-23.524.168-.084-13.659z"/></g><g><path fill="#3e3f43" d="M132.79 236.172s.338 40.893-.59 42.157c-.927 1.265-17.453 61.297-17.453 61.297l-11.972-.843 6.913-77.317-7.588-73.606z"/></g><g><path fill="#3e3f43" d="M147.63 151.107l-5.228 23.692s16.357 55.563 16.694 60.2c.337 4.638-4.384 103.876-4.384 103.876h-11.636l-12.141-94.179s-39.88-53.709-35.58-72.51c4.3-18.803 17.452-27.656 17.452-27.656z"/></g><g><path fill="#3ea3f2" d="M100.5 150.768l47.553 8.01-.337-20.826s-.843-11.382 1.686-19.898c1.35-4.385 2.446-8.6 3.036-10.877 3.54-15.092-9.696-29.763-15.767-43.337-11.467-.76-7.757.084-17.96-3.12 0 0-10.454 14.165-13.152 19.224-3.879 6.998-2.698 54.298-5.059 70.824z"/></g><g><path fill="#fe9067" d="M107.242 110.884c1.686 14.67 3.457 28.751 4.216 30.016 1.349 2.36 19.223 4.721 30.269 5.986 19.814 2.867 31.112 6.324 33.388 5.986 5.143-.59 8.01-1.18 6.492-4.974-1.517-3.794 4.47-4.132 2.614-6.998-1.855-2.867 4.89-4.3 1.686-6.493-3.12-2.192-10.117 1.602-10.117 1.602s-5.312-4.89-10.624 3.542c-1.265 2.023-7.25 0-8.937-.422-9.36-2.276-18.212-6.492-27.065-10.118l.253-17.116c.084.085-23.187-10.117-22.175-1.011z"/></g><g><path fill="#3ea3f2" d="M117.951 71.93c-7.673-.422-13.996 6.07-13.322 13.743.59 6.66 1.602 16.02 2.614 25.21 7.42.168 14.84.59 22.26 1.096l.42-27.065c.17-6.83-5.142-12.563-11.972-12.985z"/></g><g><path fill="#fdc619" d="M97.043 38.373c0 1.94.506 3.879.843 5.734.337 1.94.422 3.963-.253 5.733-.759 1.77-2.614 3.204-4.553 2.951 2.276 4.047 8.094 5.143 12.141 3.036 4.132-2.108 6.577-6.661 7.251-11.214.338-2.277.253-4.553.76-6.745.42-2.193 1.433-4.47 3.287-5.65-2.613-3.71-7.672-5.396-11.972-4.047-4.3 1.35-7.504 5.734-7.504 10.203z"/></g><g><path fill="#3e3f43" d="M129.42 107.68c.254 0 .59-.169.59-.506 1.013-5.65 2.193-12.057 1.097-18.128-1.265-6.83-5.48-12.31-10.877-14.165-.337-.084-.674.085-.759.422-.084.337.085.675.422.759 4.975 1.686 8.937 6.83 10.118 13.237 1.012 5.902-.085 11.889-1.096 17.706-.085.338.168.675.506.675-.085 0-.085 0 0 0z"/></g><g><path fill="#3ea3f2" d="M167.447 17.295c-.505 13.322-3.54 8.516-16.778 10.708l-36.002 7.672c-.253-.758-.506-1.517-.675-2.276-2.108-9.95 3.879-19.73 13.49-22.512v-.084c-.084-.422.844-.928 2.024-1.18 1.18-.254 2.276-.17 2.36.252 0 .085 0 .169-.084.253 7.504-.421 14.503 3.626 17.96 10.202z"/></g><g><g><path fill="#fff" d="M140.296 11.73c1.18-1.518 3.963-1.434 6.24.337 2.276 1.686 3.119 4.384 1.939 5.986-1.18 1.518-3.963 1.433-6.24-.337-2.192-1.77-3.12-4.469-1.939-5.986z"/></g></g><g><path fill="#fccf31" d="M121.328 180.019l-.675 24.03-13.153-.844 2.53-23.945z"/></g><g><path fill="#fccf31" d="M116.851 180.444l-7.167 23.018-12.394-4.469 8.937-22.343z"/></g><g><path fill="#fe9067" d="M95.61 95.793s5.059 22.85 5.565 26.896c.506 4.047 8.516 49.071 8.516 49.071l8.852-1.602-1.854-50.42-7.673-24.198z"/></g><g><path fill="#fe9067" d="M118.034 157.425c1.096 12.732 1.602 19.055.674 22.428l-3.794-.253-2.445-.675c-.337-.084-.759-.927-1.517 1.096-.59 1.602-2.614 9.528-3.289.085-.084-2.024 0-5.06.76-9.78-.422-5.481-2.193-19.646-2.193-19.646z"/></g><g><path fill="#3e3f43" d="M44.6 225.885l15.007-36.34 4.722.084 3.204 36.171 12.815 124.195h16.189l-9.19-6.998s8.178-57.755 9.527-117.197c.422-16.02.506-46.541-.084-61.465l-69.391-1.855c-.759 11.973-8.6 45.024-9.865 63.32-2.782 51.263 2.192 116.523 2.192 116.523L9.44 349.995h16.104z"/></g><g><path fill="#3ea3f2" d="M99.07 168.89c-41.483 3.457-34.232 9.78-75.715 6.324l4.3-72.68L7.42 93.681s9.612-26.896 11.467-29.172c1.855-2.277 28.582-15.43 33.81-15.093 2.108.085 5.143.338 8.263.59 3.12-.252 6.155-.421 8.262-.59 5.312-.337 32.04 12.816 33.895 15.093 1.855 2.276 11.467 29.173 11.467 29.173l-20.236 8.852z"/></g><g><path fill="#3e3f43" d="M86.16 141.238c.254 0 .422-.084.507-.337.168-.253.084-.675-.254-.844-18.633-9.949-33.304-26.137-41.566-45.53-.085-.337-.506-.42-.76-.337-.337.085-.42.506-.337.76 8.348 19.645 23.271 36.002 42.073 46.12.169.084.253.168.338.168z"/></g><g><path fill="#3e3f43" d="M66.013 149.082c.169 0 .253-.084.422-.084.253-.253.337-.59.084-.844-7.757-9.949-13.237-18.296-16.947-29.34-.084-.338-.422-.507-.759-.423-.337.085-.506.422-.422.76 3.71 11.129 9.275 19.645 17.116 29.678.085.169.338.253.506.253z"/></g><g><path fill="#3e3f43" d="M93.501 96.386s.085 0 0 0c.422 0 .59-.338.59-.675-.758-8.937 1.35-18.128 5.903-25.8.168-.253.084-.675-.169-.843-.253-.169-.674-.085-.843.168-4.722 7.926-6.83 17.37-6.07 26.56 0 .337.252.59.59.59z"/></g><g><path fill="#fe9067" d="M72.673 35.174v13.997s-11.298 12.057-21.753.253l.927-14.334h20.826z"/></g><g><path fill="#fe9067" d="M61.886 2.625c12.226.337 13.997 13.912 13.744 25.294-.169 11.382-5.228 18.97-12.985 19.56-7.757.591-13.321-7.166-15.682-17.62C44.686 19.402 42.41 2.033 61.886 2.624z"/></g><g><path fill="#fe9067" d="M73.941 25.05s0-4.638 3.879-3.458c3.878 1.18.421 11.973-3.879 11.214-4.3-.759 0-7.757 0-7.757z"/></g><g><path fill="#fe9067" d="M49.236 28.34s-.59-4.637-4.3-2.95c-3.71 1.685 1.18 11.887 5.312 10.623 4.131-1.35-1.012-7.673-1.012-7.673z"/></g><g><path fill="#d47557" d="M61.88 48.157h.842c3.457-.252 6.577-1.939 8.853-4.721a.648.648 0 0 0-.084-.843c-.253-.253-.674-.169-.843.084-2.108 2.53-4.89 4.047-8.01 4.3-3.288.253-6.24-1.096-8.853-3.878a.649.649 0 0 0-.843-.085.649.649 0 0 0-.084.843c2.613 2.783 5.733 4.3 9.021 4.3z"/></g><g><path fill="#d47557" d="M62.222 2.285c9.95.506 13.322 9.696 13.322 19.392 0 0-1.35 2.193-1.18 5.48l-1.687.591-.675-8.516s-3.456-.759-2.613-6.914c0 0-10.371 3.289-17.706 1.18 0 0 1.18 5.566-2.951 7.083l.337 7.167h-1.35s-.42-2.108-1.685-2.614C43.84 14.932 45.022 1.358 62.222 2.285z"/></g><g/><g/><g><path fill="#3ea3f2" d="M60.53 23.197c6.83-.506 11.383 1.012 13.491.843 2.867-.337 3.289-1.517 1.265-6.323-.084-.253-.169-.422-.422-.59h.338v-1.855A15.285 15.285 0 0 0 61.796 1.275c0-.084.084-.168.084-.253-.084-.674-1.35-1.096-2.951-1.011-1.602.084-2.782.759-2.782 1.349 0 .084 0 .168.084.253a15.105 15.105 0 0 0-11.298 15.682c0 .59.084 1.265.253 1.855h.337a1.491 1.491 0 0 0-.422.675c-1.011 5.986-.253 6.407 4.553 5.902 2.277-.253 5.565-2.108 10.877-2.53z"/></g><g><path fill="#3e3f43" d="M57.415 17.206c-.338 0-.675-.253-.675-.59 0-.337.253-.674.59-.674 3.036-.253 5.987-.422 9.022-.422 2.95.084 5.986.253 8.853.59.337.085.59.337.59.675-.084.337-.337.59-.759.59-2.866-.337-5.817-.506-8.684-.59-2.951 0-5.902.084-8.937.421z"/></g><g><path fill="#3e3f43" d="M50.5 16.956c.336-.084.674.169.758.506.084.337-.169.675-.506.76-.927.168-1.77.336-2.698.59-.843.168-1.77.42-2.614.674-.337.084-.674-.085-.759-.422-.084-.337.085-.674.422-.759.928-.253 1.77-.421 2.698-.674.928-.337 1.855-.506 2.698-.675z"/></g><g><path fill="#fff" d="M59.352 6.753c1.939-.169 3.625 1.349 3.794 3.288.169 1.94-1.35 3.626-3.288 3.794-1.94.169-3.626-1.349-3.794-3.288-.085-2.024 1.349-3.71 3.288-3.794z"/></g><g><path fill="#fff" d="M74.778 73.782c4.721-.337 8.684 3.204 9.021 7.841.338 4.722-3.204 8.685-7.925 9.022-4.637.337-8.685-3.204-9.022-7.925-.337-4.553 3.204-8.685 7.926-8.938z"/></g><g><path fill="#fccf31" d="M59.946 139.47l20.994 10.877-5.649 4.805-20.151-11.466z"/></g><g><path fill="#fe9067" d="M21.495 126.234l23.524 11.382s3.963-3.035 10.034-1.939c4.721.843 9.19 5.65 10.539 7.757.759 1.18-.337 1.77-1.686 1.433-4.638-1.349-6.661-2.36-7.673-2.36-.674 0 1.433-1.012-1.096 1.18l6.998 3.963c-2.192 2.613-4.216 7.504-10.455 5.058-3.12-1.18-8.01-5.649-8.01-5.649S3.537 136.436.586 133.822c-2.699-2.445 4.637-32.798 7.588-39.712l17.622 7.757z"/></g></g></g></svg>